<?xml version="1.0" encoding="UTF-8"?>
<svg version="1.1" xmlns="http://www.w3.org/2000/svg" width="1000" height="1000">
<path d="M0 0 C1.22996704 -0.00701431 2.45993408 -0.01402863 3.72717285 -0.02125549 C7.67490303 -0.03866426 11.62255211 -0.04568942 15.5703125 -0.046875 C16.57898754 -0.04753778 16.57898754 -0.04753778 17.60803986 -0.04821396 C37.79115851 -0.05517041 57.69098098 0.21705906 77.6953125 3.203125 C78.92620605 3.38004883 80.15709961 3.55697266 81.42529297 3.73925781 C99.05440091 6.32173814 116.42748814 9.8233498 133.6953125 14.203125 C135.21487549 14.58525146 135.21487549 14.58525146 136.76513672 14.97509766 C164.09993888 21.95205548 190.19915816 32.20202775 215.6953125 44.203125 C216.76700684 44.70537598 217.83870117 45.20762695 218.94287109 45.72509766 C231.8971116 51.85101927 244.38846187 58.58707318 256.6328125 66.015625 C257.21191376 66.36611908 257.79101501 66.71661316 258.38766479 67.07772827 C265.25615532 71.25336695 271.8625821 75.66580807 278.32104492 80.45043945 C281.12290797 82.5187762 283.98850179 84.45443094 286.8828125 86.390625 C294.20565366 91.43215298 301.02870183 97.02923771 307.87060547 102.69873047 C310.35431549 104.74644536 312.87172356 106.75163664 315.3828125 108.765625 C323.56105993 115.4591679 331.23309154 122.72703632 338.6953125 130.203125 C340.35583897 131.8420905 342.01733193 133.48007724 343.6796875 135.1171875 C345.11261947 136.53630332 346.54553232 137.95543884 347.97753906 139.37548828 C348.94706779 140.33501855 349.91839143 141.29273898 350.89160156 142.24853516 C356.82999692 148.08398756 362.38367359 154.07063598 367.58203125 160.59008789 C369.59744782 163.08211695 371.68705624 165.47048204 373.8359375 167.84765625 C393.70779179 189.99996766 410.33299921 216.69687824 424.41113281 242.82861328 C425.54419134 244.92369451 426.70172365 247.0015037 427.875 249.07421875 C438.53363687 268.11143002 446.36061172 288.70615296 453.6953125 309.203125 C454.15067383 310.44449219 454.15067383 310.44449219 454.61523438 311.7109375 C467.16828979 346.04312468 474.21009221 382.90980158 477.6953125 419.203125 C477.79102539 420.14591309 477.88673828 421.08870117 477.98535156 422.06005859 C479.11517505 435.02873144 478.93924374 448.07121921 478.9453125 461.078125 C478.94632462 463.02313904 478.94632462 463.02313904 478.94735718 465.00744629 C478.93116703 484.59480269 478.47487222 503.79230699 475.6953125 523.203125 C475.52370605 524.4312793 475.35209961 525.65943359 475.17529297 526.92480469 C470.9917271 556.03404855 463.99994558 584.32236781 454.6953125 612.203125 C454.36950195 613.1818457 454.04369141 614.16056641 453.70800781 615.16894531 C446.71929272 635.8743717 437.75450733 655.99893273 427.64746094 675.36816406 C426.65993658 677.27130074 425.69664123 679.18554567 424.734375 681.1015625 C406.7938062 716.37986983 381.99626316 751.78947136 353.4921875 779.41015625 C351.60823956 781.29000865 349.86902768 783.24900339 348.1328125 785.265625 C343.1629665 791.02255068 337.80226776 796.18257884 332.0390625 801.13671875 C329.71789416 803.18321551 327.4625953 805.29120627 325.21044922 807.41308594 C318.61811133 813.60309299 311.76046735 819.2803134 304.57275391 824.76269531 C302.62602941 826.25628108 300.69700512 827.77073339 298.76953125 829.2890625 C233.16868059 880.66293933 152.46699161 913.10533084 69.6953125 922.203125 C68.91941772 922.28926056 68.14352295 922.37539612 67.34411621 922.46414185 C50.62645062 924.26600898 33.9989865 924.56370625 17.1953125 924.515625 C15.85878511 924.51370121 14.5222576 924.51186074 13.18572998 924.51010132 C-6.1518825 924.4731019 -25.15277205 924.05187168 -44.3046875 921.203125 C-45.51431152 921.03151855 -46.72393555 920.85991211 -47.97021484 920.68310547 C-99.12679641 913.29580198 -148.31772273 897.91831977 -194.26220703 874.25097656 C-196.39389864 873.1573571 -198.53466124 872.08284003 -200.67578125 871.0078125 C-236.522054 852.79963532 -272.43568147 827.97399157 -300.51171875 799 C-302.39157115 797.11605206 -304.35056589 795.37684018 -306.3671875 793.640625 C-312.12411318 788.670779 -317.28414134 783.31008026 -322.23828125 777.546875 C-324.28477801 775.22570666 -326.39276877 772.9704078 -328.51464844 770.71826172 C-334.70465549 764.12592383 -340.3818759 757.26827985 -345.86425781 750.08056641 C-347.35784358 748.13384191 -348.87229589 746.20481762 -350.390625 744.27734375 C-380.79220109 705.45665557 -403.82487162 661.57407519 -420.3046875 615.203125 C-420.65128418 614.23584473 -420.99788086 613.26856445 -421.35498047 612.27197266 C-436.3510837 570.08706789 -445.33195041 524.03605635 -445.5078125 479.15234375 C-445.51482681 477.94735229 -445.52184113 476.74236084 -445.52906799 475.50085449 C-445.54648034 471.63073955 -445.55292087 467.76077769 -445.5546875 463.890625 C-445.55512936 463.23090824 -445.55557121 462.57119148 -445.55602646 461.89148331 C-445.56319001 441.49368985 -445.21344645 421.42254699 -442.3046875 401.203125 C-442.13308105 399.9764209 -441.96147461 398.7497168 -441.78466797 397.48583984 C-433.96239725 343.05150373 -417.21448796 289.29542968 -390.3046875 241.203125 C-389.54961914 239.84550049 -389.54961914 239.84550049 -388.77929688 238.46044922 C-376.68934691 216.85715592 -362.99860439 196.31491978 -347.64160156 176.89404297 C-346.44484304 175.38039258 -345.26063122 173.8568419 -344.078125 172.33203125 C-339.91376527 167.01459183 -335.47935588 161.99769147 -330.89453125 157.0390625 C-328.8915535 154.84575655 -326.94209419 152.62829387 -325.00390625 150.37890625 C-321.24463635 146.06807343 -317.24761625 142.03356975 -313.1796875 138.015625 C-312.49003906 137.33048828 -311.80039062 136.64535156 -311.08984375 135.93945312 C-309.75803196 134.61655403 -308.42531167 133.29456875 -307.09155273 131.97363281 C-304.23350804 129.14175139 -301.38279503 126.30303695 -298.56640625 123.4296875 C-280.44666339 104.99520965 -259.01040179 89.14798023 -237.3046875 75.203125 C-236.67626953 74.79884277 -236.04785156 74.39456055 -235.40039062 73.97802734 C-230.73830948 70.99263883 -226.03623752 68.07702259 -221.3046875 65.203125 C-220.59924805 64.77418945 -219.89380859 64.34525391 -219.16699219 63.90332031 C-154.23794799 24.71348558 -76.24724881 0.29222355 0 0 Z M36.6953125 41.203125 C36.6953125 108.193125 36.6953125 175.183125 36.6953125 244.203125 C94.7753125 244.203125 152.8553125 244.203125 212.6953125 244.203125 C211.19608912 237.16210389 211.19608912 237.16210389 209.13671875 230.42578125 C208.83910645 229.59618896 208.54149414 228.76659668 208.23486328 227.91186523 C207.91243652 227.03860596 207.59000977 226.16534668 207.2578125 225.265625 C206.91218262 224.32468994 206.56655273 223.38375488 206.21044922 222.41430664 C190.21779346 179.52044604 169.42682653 137.49477234 139.11157227 102.82397461 C138.09908074 101.66522074 137.09239352 100.50138488 136.08959961 99.33422852 C116.63078907 76.80282904 94.69528346 59.70852481 67.6953125 47.203125 C66.08076172 46.42582031 66.08076172 46.42582031 64.43359375 45.6328125 C54.57236805 41.30228678 48.57196161 41.86293884 36.6953125 41.203125 Z M-93.9296875 89.515625 C-101.38576063 96.98854884 -108.06496436 104.70293455 -114.3046875 113.203125 C-115.44744141 114.688125 -115.44744141 114.688125 -116.61328125 116.203125 C-130.64381603 134.48902129 -142.32157112 154.34865872 -152.29199219 175.11279297 C-153.37212712 177.34232896 -154.48194741 179.55563009 -155.59375 181.76953125 C-160.86159243 192.39089787 -165.41413346 203.2123293 -169.6796875 214.265625 C-169.93262573 214.92007599 -170.18556396 215.57452698 -170.44616699 216.24880981 C-176.53605258 229.88386786 -176.53605258 229.88386786 -179.3046875 244.203125 C-121.2246875 244.203125 -63.1446875 244.203125 -3.3046875 244.203125 C-3.3046875 177.213125 -3.3046875 110.223125 -3.3046875 41.203125 C-39.25814395 41.203125 -69.4591382 65.3148749 -93.9296875 89.515625 Z M-190.3046875 280.203125 C-193.38121265 291.54593019 -193.38121265 291.54593019 -196.05078125 302.9453125 C-196.18695862 303.5883432 -196.32313599 304.2313739 -196.46343994 304.89389038 C-196.89626124 306.95400495 -197.32071155 309.0156608 -197.7421875 311.078125 C-197.89120514 311.80511597 -198.04022278 312.53210693 -198.1937561 313.28112793 C-202.84802441 336.12648979 -206.09628195 359.09326718 -208.6171875 382.265625 C-208.70463226 383.05078491 -208.79207703 383.83594482 -208.88217163 384.64489746 C-211.77762975 406.00514725 -211.77762975 406.00514725 -206.3046875 426.203125 C-205.7684375 427.255 -205.2321875 428.306875 -204.6796875 429.390625 C-199.79225041 435.17837945 -193.59254208 439.17973322 -186.3046875 441.203125 C-183.7098148 441.38069444 -181.22709269 441.46536875 -178.63577271 441.44363403 C-177.88335607 441.44534288 -177.13093944 441.44705173 -176.35572231 441.44881237 C-173.84528568 441.4520954 -171.33511887 441.44112326 -168.82470703 441.43017578 C-167.02088935 441.42961141 -165.2170712 441.42992873 -163.41325378 441.43106079 C-158.52322882 441.43163429 -153.6333021 441.41988031 -148.74329996 441.40591288 C-143.63037521 441.39340517 -138.51744818 441.39223498 -133.4045105 441.38986206 C-123.72550475 441.38364742 -114.04654421 441.36723678 -104.36755836 441.34716308 C-91.28617727 441.32062225 -78.2047838 441.30983131 -65.12338257 441.29815865 C-44.51711702 441.27935621 -23.91094687 441.23951039 -3.3046875 441.203125 C-3.3046875 388.073125 -3.3046875 334.943125 -3.3046875 280.203125 C-65.0146875 280.203125 -126.7246875 280.203125 -190.3046875 280.203125 Z M36.6953125 280.203125 C36.6953125 333.333125 36.6953125 386.463125 36.6953125 441.203125 C69.00095704 441.31966778 69.00095704 441.31966778 101.30664062 441.3984375 C114.48126454 441.42216979 127.65578611 441.45006571 140.83032227 441.50488281 C150.42537739 441.5447872 160.02034945 441.57056654 169.61548525 441.57947898 C174.69472414 441.5846876 179.77372546 441.59690491 184.85288811 441.62604523 C189.63730664 441.65327116 194.42139057 441.66155548 199.20587921 441.65555573 C200.95819227 441.65665275 202.71051695 441.66456378 204.46276283 441.6799469 C217.12228435 441.8898 217.12228435 441.8898 228.6953125 437.203125 C229.35393249 436.80442326 230.01255247 436.40572151 230.69113064 435.9949379 C236.94553592 432.05759219 241.101648 426.21320861 243.14282227 419.12207031 C243.81754567 415.55733634 243.89362565 412.08988759 243.875 408.4765625 C243.87231613 407.73216919 243.86963226 406.98777588 243.86686707 406.2208252 C243.77214313 397.99047584 242.95157636 389.87288322 242.0078125 381.703125 C241.87434921 380.51558121 241.87434921 380.51558121 241.7381897 379.30404663 C239.15768502 356.38363039 235.76696687 333.67577373 231.1328125 311.078125 C230.92004166 310.03708115 230.92004166 310.03708115 230.70297241 308.9750061 C230.28874246 306.96373125 229.86681751 304.95424971 229.44140625 302.9453125 C229.20091553 301.8094873 228.9604248 300.67366211 228.71264648 299.50341797 C227.18232307 293.03470746 225.4080639 286.62594277 223.6953125 280.203125 C161.9853125 280.203125 100.2753125 280.203125 36.6953125 280.203125 Z M-202.3046875 492.203125 C-208.59357344 499.37433225 -210.53191439 506.4828533 -210.4765625 515.9375 C-210.47346573 516.68303131 -210.47036896 517.42856262 -210.46717834 518.19668579 C-210.37407524 526.37507266 -209.63418735 534.45345009 -208.7421875 542.578125 C-208.65743164 543.37206665 -208.57267578 544.1660083 -208.48535156 544.98400879 C-207.00667321 558.70579187 -205.02097152 572.33250864 -202.8046875 585.953125 C-202.66143036 586.8389325 -202.51817322 587.72473999 -202.37057495 588.63739014 C-201.94986049 591.21790433 -201.51998104 593.79669683 -201.0859375 596.375 C-200.96614029 597.10206146 -200.84634308 597.82912292 -200.72291565 598.57821655 C-199.23809598 607.20585852 -197.2105038 615.62695166 -195.3046875 624.203125 C-131.9446875 624.203125 -68.5846875 624.203125 -3.3046875 624.203125 C-3.3046875 577.343125 -3.3046875 530.483125 -3.3046875 482.203125 C-34.13964333 482.14483998 -34.13964333 482.14483998 -64.97460938 482.10546875 C-77.55201858 482.09360928 -90.12940095 482.07967992 -102.70678711 482.05224609 C-111.86750725 482.03227428 -121.02820559 482.01939957 -130.1889469 482.01494801 C-135.03678219 482.01234705 -139.88455513 482.00625952 -144.73237038 481.99166489 C-149.30168679 481.97802103 -153.87091555 481.97391604 -158.4402504 481.97690964 C-160.11108185 481.97636251 -161.78191644 481.9724258 -163.45273018 481.96471405 C-177.53823245 481.90292795 -191.47155557 481.95556777 -202.3046875 492.203125 Z M36.6953125 482.203125 C36.6953125 529.063125 36.6953125 575.923125 36.6953125 624.203125 C100.0553125 624.203125 163.4153125 624.203125 228.6953125 624.203125 C232.79909778 604.74628344 232.79909778 604.74628344 236.3203125 585.203125 C236.5270459 583.93807129 236.7337793 582.67301758 236.94677734 581.36962891 C239.77431925 563.78661383 241.78224056 546.19000945 243.3203125 528.453125 C243.38293274 527.75145203 243.44555298 527.04977905 243.5100708 526.32684326 C244.80769628 511.6176917 245.16709159 496.99331051 245.6953125 482.203125 C176.7253125 482.203125 107.7553125 482.203125 36.6953125 482.203125 Z M288.6953125 482.203125 C288.0353125 494.083125 287.3753125 505.963125 286.6953125 518.203125 C286.17321994 524.82183476 285.63501503 531.41601754 284.9453125 538.015625 C284.86360809 538.81890228 284.78190369 539.62217957 284.69772339 540.44979858 C283.39163024 553.18987307 281.70787668 565.85876929 279.7578125 578.515625 C279.58493713 579.64044785 279.58493713 579.64044785 279.40856934 580.78799438 C277.15144114 595.32061587 274.37421181 609.73706871 271.6953125 624.203125 C315.9153125 624.203125 360.1353125 624.203125 405.6953125 624.203125 C425.13504322 580.46373087 437.6953125 530.24455183 437.6953125 482.203125 C388.5253125 482.203125 339.3553125 482.203125 288.6953125 482.203125 Z M-184.3046875 664.203125 C-183.04780332 670.48754592 -181.90889735 675.90103848 -179.90625 681.8515625 C-179.67535675 682.5385321 -179.4444635 683.22550171 -179.20657349 683.93328857 C-178.45633493 686.15132286 -177.6945041 688.36507807 -176.9296875 690.578125 C-176.66724243 691.34235779 -176.40479736 692.10659058 -176.13439941 692.89398193 C-170.925476 708.00646038 -164.90470146 722.64045031 -158.3046875 737.203125 C-157.9339209 738.03424805 -157.5631543 738.86537109 -157.18115234 739.72167969 C-146.46318564 763.72049371 -132.76068555 785.99470662 -117.3046875 807.203125 C-116.88219727 807.78690918 -116.45970703 808.37069336 -116.02441406 808.97216797 C-109.15545445 818.40660928 -101.39365662 826.81788188 -93.3046875 835.203125 C-92.78616211 835.74888184 -92.26763672 836.29463867 -91.73339844 836.85693359 C-84.18082999 844.80066112 -76.0954836 851.66422519 -67.3046875 858.203125 C-66.46421875 858.83863281 -65.62375 859.47414063 -64.7578125 860.12890625 C-52.88752898 868.7926199 -40.0334632 875.10290991 -26.3046875 880.203125 C-24.6546875 880.863125 -23.0046875 881.523125 -21.3046875 882.203125 C-15.3646875 882.533125 -9.4246875 882.863125 -3.3046875 883.203125 C-3.3046875 810.933125 -3.3046875 738.663125 -3.3046875 664.203125 C-63.0346875 664.203125 -122.7646875 664.203125 -184.3046875 664.203125 Z M36.6953125 664.203125 C36.6953125 736.473125 36.6953125 808.743125 36.6953125 883.203125 C50.18766231 882.45355001 58.27165979 881.76456254 69.6953125 876.203125 C70.36336914 875.88891602 71.03142578 875.57470703 71.71972656 875.25097656 C91.06428365 866.1471206 107.36438784 853.98716769 122.6953125 839.203125 C123.25283203 838.66751953 123.81035156 838.13191406 124.38476562 837.58007812 C131.69802537 830.51871022 138.48350969 823.27108621 144.6953125 815.203125 C145.14729004 814.62224121 145.59926758 814.04135742 146.06494141 813.44287109 C158.38710725 797.56599697 168.88272038 780.72507629 178.6953125 763.203125 C179.08428711 762.5131543 179.47326172 761.82318359 179.87402344 761.11230469 C205.95130571 714.90709527 205.95130571 714.90709527 217.6953125 664.203125 C157.9653125 664.203125 98.2353125 664.203125 36.6953125 664.203125 Z " fill="#FEFEFE" transform="translate(483.3046875,37.796875)"/>
<path d="M0 0 C13.2 0 26.4 0 40 0 C40 46.86 40 93.72 40 142 C103.36 142 166.72 142 232 142 C232.66 137.71 233.32 133.42 234 129 C234.57772357 125.75767382 235.15566024 122.51535493 235.75048828 119.27612305 C241.82446272 86.19694481 245.65706154 53.14860537 247.35400391 19.57226562 C247.3907019 18.85928818 247.4273999 18.14631073 247.46520996 17.41172791 C247.5633518 15.48435491 247.6570883 13.556759 247.75048828 11.62915039 C248.01790051 7.73963693 248.51642638 3.86858899 249 0 C263.19 0 277.38 0 292 0 C292 9.9670845 291.88076751 19.7625792 291.25 29.6875 C291.18614609 30.69671509 291.18614609 30.69671509 291.1210022 31.72631836 C288.85249177 66.9058688 283.78952629 101.757149 277.015625 136.33984375 C276.84321289 137.22019287 276.67080078 138.10054199 276.49316406 139.00756836 C276 141 276 141 275 142 C273.25244098 142.10941075 271.50086746 142.15587201 269.75 142.17578125 C268.66589844 142.19962891 267.58179688 142.22347656 266.46484375 142.24804688 C264.18637782 142.29043096 261.90768031 142.32199293 259.62890625 142.34179688 C252.542764 142.52124571 247.1891822 143.50057326 241 147 C240.34572021 147.36657715 239.69144043 147.7331543 239.01733398 148.11083984 C227.38079463 155.03310599 225.52369982 170.25433393 222 182 C161.94 182 101.88 182 40 182 C40 254.27 40 326.54 40 401 C44.95 400.67 49.9 400.34 55 400 C34.80356968 410.09821516 6.05345706 406.85903258 -15 401 C-15 400.67 -15 400.34 -15 400 C-10.05 400.33 -5.1 400.66 0 401 C0 328.73 0 256.46 0 182 C-60.06 182 -120.12 182 -182 182 C-185.77568076 168.78511734 -189.16865676 155.44888041 -192 142 C-128.64 142 -65.28 142 0 142 C0 95.14 0 48.28 0 0 Z " fill="#000000" transform="translate(480,520)"/>
<path d="M0 0 C0 0.33 0 0.66 0 1 C-4.95 0.67 -9.9 0.34 -15 0 C-15 66.99 -15 133.98 -15 203 C43.41 203 101.82 203 162 203 C172 234.42857143 172 234.42857143 172 239 C110.29 239 48.58 239 -15 239 C-15 292.46 -15 345.92 -15 401 C-28.2 401 -41.4 401 -55 401 C-55 347.54 -55 294.08 -55 239 C-116.71 239 -178.42 239 -242 239 C-239.74831297 227.74156484 -239.74831297 227.74156484 -238.30859375 222.84375 C-237.85129883 221.28140625 -237.85129883 221.28140625 -237.38476562 219.6875 C-237.07216797 218.635625 -236.75957031 217.58375 -236.4375 216.5 C-236.12103516 215.4171875 -235.80457031 214.334375 -235.47851562 213.21875 C-233.1437595 205.287519 -233.1437595 205.287519 -232 203 C-173.59 203 -115.18 203 -55 203 C-55 136.01 -55 69.02 -55 0 C-59.95 0.33 -64.9 0.66 -70 1 C-49.89224104 -9.05387948 -20.90152959 -6.01771485 0 0 Z " fill="#000000" transform="translate(535,79)"/>
<path d="M0 0 C0.33 0 0.66 0 1 0 C2.78136999 65.97666638 -14.91767482 131.30803881 -42 191 C-42.33 191 -42.66 191 -43 191 C-42.97679687 190.3709375 -42.95359375 189.741875 -42.9296875 189.09375 C-42.71675818 178.99481657 -44.39598807 171.90069008 -51 164 C-55.96238707 159.49668839 -61.00573459 157.14895026 -67.6640625 156.453125 C-68.47568848 156.36708008 -69.28731445 156.28103516 -70.12353516 156.19238281 C-70.74276855 156.12889648 -71.36200195 156.06541016 -72 156 C-71.67314209 155.09572266 -71.34628418 154.19144531 -71.00952148 153.25976562 C-54.46625161 107.39038086 -44.08162678 62.65728768 -40 14 C-39.22398437 13.99589111 -38.44796875 13.99178223 -37.6484375 13.98754883 C-34.09820876 13.95445078 -30.54965906 13.88378564 -27 13.8125 C-25.16888672 13.80379883 -25.16888672 13.80379883 -23.30078125 13.79492188 C-15.99489763 13.61721119 -10.52227098 13.07563014 -5 8 C-3.1376618 5.88638974 -3.1376618 5.88638974 -2.0625 3.6875 C-1.38825901 2.4510106 -0.70492893 1.21925475 0 0 Z " fill="#000000" transform="translate(961,506)"/>
<path d="M0 0 C0.66 0.33 1.32 0.66 2 1 C-9.55 12.55 -21.1 24.1 -33 36 C-33 33 -33 33 -31.15161133 30.81103516 C-30.3036499 29.97878418 -29.45568848 29.1465332 -28.58203125 28.2890625 C-27.65712891 27.37382812 -26.73222656 26.45859375 -25.77929688 25.515625 C-24.79055307 24.55188992 -23.80161914 23.58834986 -22.8125 22.625 C-21.8424131 21.66996701 -20.87300396 20.71424504 -19.90429688 19.7578125 C-18.104693 17.98436203 -16.30202879 16.21400795 -14.49536133 14.44775391 C-11.98066756 11.98103639 -9.48725419 9.49435613 -7 7 C-4.66666667 4.66666667 -2.33333333 2.33333333 0 0 Z " fill="#F5F5F5" transform="translate(190,156)"/>
</svg>
